<svg width="14" height="14" viewBox="0 0 14 14" fill="none" xmlns="http://www.w3.org/2000/svg">
<path d="M6.99994 3.75C7.41415 3.75 7.74994 4.08579 7.74994 4.5V8C7.74994 8.41421 7.41415 8.75 6.99994 8.75C6.58573 8.75 6.24994 8.41421 6.24994 8V4.5C6.24994 4.08579 6.58573 3.75 6.99994 3.75Z" fill="#4A4A4A"/>
<path d="M8 10.5C8 11.0523 7.55228 11.5 7 11.5C6.44772 11.5 6 11.0523 6 10.5C6 9.94771 6.44772 9.5 7 9.5C7.55228 9.5 8 9.94771 8 10.5Z" fill="#4A4A4A"/>
<path fill-rule="evenodd" clip-rule="evenodd" d="M7.00004 0.5C5.95471 0.5 5.21616 1.20232 4.84762 1.94672C4.65565 2.33448 3.75984 4.0441 2.84305 5.79353L2.81531 5.84646C1.9229 7.54935 1.01714 9.27772 0.807159 9.70196C0.435098 10.4537 0.329306 11.4519 0.899529 12.316C1.46911 13.1791 2.44222 13.5 3.36356 13.5L10.6364 13.5C11.5577 13.5 12.5308 13.1791 13.1004 12.316C13.6707 11.4519 13.5649 10.4537 13.1928 9.70196C12.9832 9.27838 12.08 7.55499 11.1889 5.85476L11.1569 5.79352C10.24 4.044 9.34427 2.33454 9.15244 1.94693C8.78399 1.20242 8.04544 0.5 7.00004 0.5ZM6.1919 2.61225C6.59605 1.79592 7.40407 1.79592 7.80806 2.61225C8.01016 3.02061 8.92007 4.75686 9.82963 6.49243C10.7383 8.22621 11.6466 9.9594 11.8485 10.3673C12.2525 11.1837 11.8485 12 10.6364 12L3.36356 12C2.1515 12 1.74746 11.1837 2.1515 10.3673C2.35376 9.95871 3.26468 8.22049 4.1748 6.4838C5.08283 4.75111 5.99005 3.01994 6.1919 2.61225Z" fill="#4A4A4A"/>
</svg>
