<svg width="14" height="14" viewBox="0 0 14 14" fill="none" xmlns="http://www.w3.org/2000/svg">
<path fill-rule="evenodd" clip-rule="evenodd" d="M7 0C5.067 0 3.5 1.567 3.5 3.5C3.5 5.433 5.067 7 7 7C8.933 7 10.5 5.433 10.5 3.5C10.5 1.567 8.933 0 7 0ZM5 3.5C5 2.39543 5.89543 1.5 7 1.5C8.10457 1.5 9 2.39543 9 3.5C9 4.60457 8.10457 5.5 7 5.5C5.89543 5.5 5 4.60457 5 3.5Z" fill="#4A4A4A"/>
<path fill-rule="evenodd" clip-rule="evenodd" d="M12.4839 11.2268C11.3775 9.23519 9.27829 8 6.99999 8C4.72169 8 2.62247 9.23519 1.51603 11.2268L1.07937 12.0128C0.584057 12.9043 1.22875 14 2.24867 14H11.7513C12.7712 14 13.4159 12.9043 12.9206 12.0128L12.4839 11.2268ZM2.82727 11.9552C3.66915 10.4398 5.26644 9.5 6.99999 9.5C8.73354 9.5 10.3308 10.4398 11.1727 11.9552L11.4754 12.5H2.52463L2.82727 11.9552Z" fill="#4A4A4A"/>
</svg>
